<?xml version="1.0" encoding="UTF-8"?>
<svg version="1.1" xmlns="http://www.w3.org/2000/svg" width="29" height="43">
<path d="M0 0 C9.57 0 19.14 0 29 0 C29 14.19 29 28.38 29 43 C19.43 43 9.86 43 0 43 C0 28.81 0 14.62 0 0 Z " fill="#FFFFFF" transform="translate(0,0)"/>
<path d="M0 0 C5.15422293 4.67101453 9.11365178 10.25244779 13 16 C13 16.33 13 16.66 13 17 C11.02 17 9.04 17 7 17 C7 22.61 7 28.22 7 34 C3.04 34 -0.92 34 -5 34 C-5 28.39 -5 22.78 -5 17 C-6.98 17 -8.96 17 -11 17 C-3.70159453 5.47835991 -3.70159453 5.47835991 0 0 Z " fill="#3138A0" transform="translate(14,5)"/>
</svg>
